<svg version="1.1" preserveAspectRatio="none" xmlns="http://www.w3.org/2000/svg" width="500" height="500" viewBox="0 0 500 500"><rect width="100%" height="100%" fill="#FFFFFF" fill-opacity="1"/><svg viewBox="31.4285 144.219 442.4817 70" width="333" height="52.68014473818918" x="83.5px" y="223.6599px" xmlns="http://www.w3.org/2000/svg" xmlns:xlink="http://www.w3.org/1999/xlink" preserveAspectRatio="none"><defs></defs><style>.aD6z1nYkhcolor {fill:#42A5FF;fill-opacity:1;}.aIptOCySncolors-3 {fill:#3CB9EF;fill-opacity:1;}.aIptOCySncolors-4 {fill:#83EDFF;fill-opacity:1;}.aIptOCySncolors-5 {fill:#AEDDFF;fill-opacity:1;}.aIptOCySncolors-6 {fill:#FFF1FF;fill-opacity:1;}.aIptOCySncolors-7 {fill:#FFE4CE;fill-opacity:1;}.icon1 {fill:#42A5FF;fill-opacity:1;}.icon2 {fill:#6DDDD0;fill-opacity:1;}.icon3 {fill:#FFD4D4;fill-opacity:1;}.icon3-str {stroke:#FFD4D4;stroke-opacity:1;}</style><g opacity="1" transform="rotate(0 31.4285 144.219)">
<svg width="95.9253" height="70" x="31.4285" y="144.219" version="1.1" preserveAspectRatio="none" viewBox="25.999921798706055 45.99949645996094 147.99974060058594 108.00050354003906">
  <g transform="matrix(1 0 0 1 0 0)"><g><path d="M146.859 103.523c-.89 0-1.786-.299-2.527-.911-25.535-21.127-62.601-21.127-88.135 0a3.964 3.964 0 0 1-5.593-.537 3.99 3.99 0 0 1 .535-5.608c28.466-23.553 69.784-23.553 98.25 0a3.99 3.99 0 0 1 .535 5.608 3.958 3.958 0 0 1-3.065 1.448zm26.16-24.706a3.991 3.991 0 0 0-.379-5.621c-41.412-36.262-103.869-36.262-145.28 0a3.99 3.99 0 0 0-.379 5.621 3.963 3.963 0 0 0 5.606.38c38.432-33.651 96.396-33.651 134.827 0a3.952 3.952 0 0 0 2.611.983 3.953 3.953 0 0 0 2.994-1.363zm-46.736 46.421a3.991 3.991 0 0 0-.963-5.551c-15.124-10.674-35.448-10.674-50.574 0a3.992 3.992 0 0 0-.962 5.552 3.97 3.97 0 0 0 5.537.965c12.389-8.744 29.036-8.744 41.427 0a3.968 3.968 0 0 0 5.535-.966zM100 148.522h.066m5.463 0c0-3.025-2.446-5.478-5.463-5.478H100c-3.017 0-5.43 2.453-5.43 5.478S97.049 154 100.066 154c3.017 0 5.463-2.453 5.463-5.478z" data-color="1" class="icon1"></path></g></g>
</svg>
</g><g opacity="1" transform="rotate(0 142.3538 159.219)">
<svg width="331.5564" height="40" x="142.3538" y="159.219" version="1.1" preserveAspectRatio="none" viewBox="0.332 -28.1055 211.7383 28.496199999999998">
  <g transform="matrix(1 0 0 1 0 0)" class="aD6z1nYkhcolor"><path id="id-D6z1nYkh10" d="M5.55 0L0.33-19.96L4.53-19.96L8.20-4.55L8.65-2.05L9.04-4.53L12.44-19.96L17.73-19.96L21.31-4.55L21.78-2.05L22.21-4.55L25.68-19.96L29.75-19.96L24.71 0L18.75 0L15.55-14.26L15.02-17.15L14.53-14.26L11.62 0L5.55 0Z M31.60-9.79L31.60-9.79Q31.60-12.60 32.29-14.63Q32.97-16.66 34.20-17.97Q35.43-19.28 37.14-19.89Q38.85-20.51 40.90-20.51L40.90-20.51Q42.79-20.51 44.29-19.87Q45.78-19.24 46.82-18.09Q47.85-16.93 48.40-15.33Q48.95-13.73 48.95-11.80L48.95-11.80Q48.95-11.13 48.89-10.57Q48.83-10 48.75-9.59L48.75-9.59Q48.67-9.10 48.57-8.71L48.57-8.71L35.76-8.77Q35.78-7.03 36.13-5.89Q36.48-4.75 37.18-4.08Q37.87-3.42 38.93-3.15Q39.98-2.89 41.43-2.89L41.43-2.89Q42.66-2.89 43.63-3.05Q44.61-3.20 45.29-3.42L45.29-3.42Q46.07-3.65 46.70-3.96L46.70-3.96Q46.99-3.28 47.16-2.70Q47.32-2.11 47.40-1.68L47.40-1.68Q47.48-1.17 47.52-0.78L47.52-0.78Q46.88-0.45 45.96-0.20L45.96-0.20Q45.18 0.02 44.04 0.21Q42.91 0.39 41.43 0.39L41.43 0.39Q39.08 0.39 37.26-0.14Q35.43-0.66 34.17-1.87Q32.91-3.07 32.26-5.01Q31.60-6.95 31.60-9.79ZM35.82-11.62L44.77-11.62L44.77-12.29Q44.77-13.52 44.46-14.46Q44.16-15.41 43.63-16.05Q43.11-16.70 42.38-17.03Q41.66-17.36 40.82-17.36L40.82-17.36Q39.59-17.36 38.65-17.04Q37.71-16.72 37.08-16.03Q36.45-15.33 36.13-14.24Q35.82-13.14 35.82-11.62L35.82-11.62Z M53.13-0.51L53.13-28.11L57.27-28.11L57.27-18.79L57.38-18.79Q57.52-18.91 57.93-19.20Q58.34-19.49 58.99-19.79Q59.65-20.08 60.52-20.30Q61.39-20.53 62.48-20.53L62.48-20.53Q63.96-20.53 65.36-20.06Q66.76-19.59 67.83-18.44Q68.91-17.29 69.55-15.32Q70.20-13.36 70.20-10.37L70.20-10.37Q70.20-7.68 69.41-5.66Q68.63-3.65 67.30-2.30Q65.98-0.96 64.21-0.28Q62.44 0.39 60.47 0.39L60.47 0.39Q58.69 0.39 57.33 0.25Q55.98 0.12 55.04-0.06L55.04-0.06Q53.95-0.25 53.13-0.51L53.13-0.51ZM57.27-16.27L57.27-3.07Q57.54-2.95 58.12-2.79Q58.69-2.64 59.59-2.64L59.59-2.64Q62.62-2.64 64.21-4.65Q65.80-6.66 65.80-10.37L65.80-10.37Q65.80-12.44 65.42-13.79Q65.04-15.14 64.34-15.93Q63.63-16.72 62.63-17.03Q61.62-17.34 60.35-17.34L60.35-17.34Q59.82-17.34 59.28-17.18Q58.73-17.01 58.28-16.80L58.28-16.80Q57.75-16.56 57.27-16.27L57.27-16.27Z M88.48 0L83.26-19.96L87.46-19.96L91.13-4.55L91.58-2.05L91.97-4.53L95.37-19.96L100.66-19.96L104.24-4.55L104.71-2.05L105.14-4.55L108.61-19.96L112.68-19.96L107.64 0L101.68 0L98.48-14.26L97.95-17.15L97.46-14.26L94.55 0L88.48 0Z M114.51-9.98L114.51-9.98Q114.51-12.56 115.21-14.53Q115.90-16.50 117.16-17.83Q118.42-19.16 120.17-19.84Q121.91-20.53 124.02-20.53L124.02-20.53Q126.19-20.53 127.93-19.89Q129.67-19.26 130.88-17.97Q132.09-16.68 132.73-14.76Q133.38-12.83 133.38-10.25L133.38-10.25Q133.38-7.68 132.72-5.68Q132.07-3.69 130.85-2.34Q129.63-1.00 127.90-0.30Q126.17 0.39 124.02 0.39L124.02 0.39Q121.80 0.39 120.03-0.26Q118.26-0.92 117.04-2.22Q115.82-3.52 115.17-5.46Q114.51-7.40 114.51-9.98ZM124.02-2.83L124.02-2.83Q125.31-2.83 126.26-3.39Q127.21-3.95 127.81-4.93Q128.42-5.92 128.71-7.28Q129.00-8.63 129.00-10.25L129.00-10.25Q129.00-13.75 127.81-15.59Q126.62-17.42 124.02-17.42L124.02-17.42Q122.71-17.42 121.75-16.87Q120.78-16.31 120.15-15.31Q119.51-14.32 119.20-12.95Q118.89-11.58 118.89-9.98L118.89-9.98Q118.89-6.45 120.15-4.64Q121.41-2.83 124.02-2.83Z M137.83 0L137.83-16.39L136.29-17.97L136.29-20.18L139.88-20.18L141.56-18.65L142.13-18.77Q142.27-18.89 142.76-19.18Q143.26-19.47 143.99-19.77Q144.73-20.06 145.66-20.28Q146.60-20.51 147.64-20.51L147.64-20.51Q149.28-20.51 150.56-20.02Q151.84-19.53 152.71-18.62Q153.59-17.71 154.04-16.45Q154.49-15.18 154.49-13.59L154.49-13.59L154.49 0L150.29 0L150.29-13.18Q150.29-15.31 149.40-16.32Q148.52-17.32 146.58-17.32L146.58-17.32Q145.63-17.32 144.80-17.16Q143.98-16.99 143.36-16.78L143.36-16.78Q142.64-16.54 142.01-16.23L142.01-16.23L142.01 0L137.83 0Z M158.83-9.63L158.83-9.63Q158.83-12.42 159.61-14.47Q160.39-16.52 161.73-17.87Q163.07-19.22 164.82-19.87Q166.58-20.53 168.55-20.53L168.55-20.53Q169.30-20.53 169.88-20.46Q170.47-20.39 170.88-20.29L170.88-20.29Q171.37-20.20 171.74-20.06L171.74-20.06L171.74-28.11L175.90-28.11L175.90-3.22L177.62-1.23L177.62 0L173.71 0L172.36-1.54L171.70-1.54Q171.60-1.45 171.30-1.13Q171.00-0.82 170.44-0.49Q169.88-0.16 169.07 0.12Q168.26 0.39 167.17 0.39L167.17 0.39Q165.72 0.39 164.24-0.20Q162.75-0.78 161.55-2.01Q160.35-3.24 159.59-5.13Q158.83-7.01 158.83-9.63ZM163.20-9.63L163.20-9.63Q163.20-7.81 163.58-6.52Q163.96-5.23 164.67-4.40Q165.37-3.57 166.39-3.19Q167.40-2.81 168.67-2.81L168.67-2.81Q169.16-2.81 169.71-2.97Q170.25-3.13 170.70-3.34L170.70-3.34Q171.23-3.55 171.74-3.87L171.74-3.87L171.74-17.07Q171.48-17.23 170.99-17.38Q170.49-17.54 169.61-17.54L169.61-17.54Q166.54-17.54 164.87-15.52Q163.20-13.50 163.20-9.63Z M180.06-9.79L180.06-9.79Q180.06-12.60 180.74-14.63Q181.43-16.66 182.66-17.97Q183.89-19.28 185.60-19.89Q187.30-20.51 189.36-20.51L189.36-20.51Q191.25-20.51 192.74-19.87Q194.24-19.24 195.27-18.09Q196.31-16.93 196.86-15.33Q197.40-13.73 197.40-11.80L197.40-11.80Q197.40-11.13 197.34-10.57Q197.29-10 197.21-9.59L197.21-9.59Q197.13-9.10 197.03-8.71L197.03-8.71L184.22-8.77Q184.24-7.03 184.59-5.89Q184.94-4.75 185.63-4.08Q186.33-3.42 187.38-3.15Q188.44-2.89 189.88-2.89L189.88-2.89Q191.11-2.89 192.09-3.05Q193.07-3.20 193.75-3.42L193.75-3.42Q194.53-3.65 195.16-3.96L195.16-3.96Q195.45-3.28 195.62-2.70Q195.78-2.11 195.86-1.68L195.86-1.68Q195.94-1.17 195.98-0.78L195.98-0.78Q195.33-0.45 194.41-0.20L194.41-0.20Q193.63 0.02 192.50 0.21Q191.37 0.39 189.88 0.39L189.88 0.39Q187.54 0.39 185.71-0.14Q183.89-0.66 182.63-1.87Q181.37-3.07 180.71-5.01Q180.06-6.95 180.06-9.79ZM184.28-11.62L193.22-11.62L193.22-12.29Q193.22-13.52 192.92-14.46Q192.62-15.41 192.09-16.05Q191.56-16.70 190.84-17.03Q190.12-17.36 189.28-17.36L189.28-17.36Q188.05-17.36 187.11-17.04Q186.17-16.72 185.54-16.03Q184.90-15.33 184.59-14.24Q184.28-13.14 184.28-11.62L184.28-11.62Z M200.49-20.18L204.08-20.18L206.09-18.07Q206.31-18.55 206.65-18.99Q206.99-19.43 207.45-19.77Q207.91-20.10 208.49-20.29Q209.06-20.49 209.75-20.49L209.75-20.49Q210.31-20.49 210.84-20.40Q211.37-20.31 211.99-20.10L211.99-20.10Q212.01-20.06 212.04-19.79Q212.07-19.51 212.07-19.10L212.07-19.10Q212.07-18.79 212.03-18.37Q211.99-17.95 211.90-17.51Q211.82-17.07 211.65-16.64Q211.48-16.21 211.23-15.90L211.23-15.90L210.86-15.80Q210.47-16.00 209.99-16.13Q209.51-16.27 209.00-16.27L209.00-16.27Q208.22-16.27 207.70-16.16Q207.17-16.05 206.84-15.94L206.84-15.94Q206.45-15.80 206.21-15.63L206.21-15.63L206.21 0L202.03 0L202.03-16.39L200.49-17.97L200.49-20.18Z"/></g>
</svg>
</g></svg></svg>